<svg xmlns="http://www.w3.org/2000/svg" width="104.5px" height="104.5px" viewBox="0 0 104.5 104.5">
<path fill="#000000" d="M52.248,0.48c-28.865,0-52.266,23.403-52.266,52.272c0,23.096,14.973,42.687,35.747,49.599
	c2.613,0.479,3.567-1.134,3.567-2.521c0-1.239-0.045-4.53-0.07-8.893c-14.54,3.158-17.61-7.005-17.61-7.005
	c-2.376-6.036-5.804-7.646-5.804-7.646c-4.745-3.242,0.36-3.179,0.36-3.179c5.245,0.37,8.006,5.389,8.006,5.389
	c4.665,7.985,12.234,5.679,15.209,4.344c0.479-3.38,1.828-5.685,3.323-6.987C31.104,74.53,18.902,70.05,18.902,50.021
	c0-5.705,2.036-10.372,5.375-14.028c-0.535-1.323-2.33-6.638,0.516-13.834c0,0,4.387-1.401,14.374,5.36
	c4.17-1.159,8.638-1.741,13.086-1.762c4.438,0.021,8.908,0.603,13.085,1.762c9.979-6.762,14.361-5.36,14.361-5.36
	c2.852,7.196,1.055,12.509,0.521,13.834c3.344,3.656,5.37,8.323,5.37,14.028c0,20.079-12.223,24.499-23.867,25.79
	c1.878,1.617,3.548,4.807,3.548,9.684c0,6.987-0.063,12.621-0.063,14.336c0,1.398,0.939,3.023,3.596,2.516
	c20.751-6.925,35.712-26.504,35.712-49.594C104.52,23.884,81.116,0.48,52.248,0.48z"/>
</svg>
