<svg width="104" height="105" viewBox="0 0 104 105" fill="none" xmlns="http://www.w3.org/2000/svg">
<path d="M36.199 2.80895C23.446 7.17795 12.587 16.7119 6.56496 28.7669C4.46996 32.9189 2.93995 37.3539 2.02095 41.9149C-0.292045 53.2749 1.31995 65.3899 6.56096 75.7359C9.96596 82.4899 14.849 88.4949 20.772 93.2009C26.36 97.6589 32.875 100.95 39.78 102.787C48.493 105.125 57.766 105.071 66.539 103.076C74.466 101.251 81.968 97.4629 87.955 91.9339C94.284 86.1189 98.798 78.4549 101.19 70.2169C103.798 61.2359 104.156 51.6449 102.522 42.4469C86.113 42.4399 69.707 42.4439 53.297 42.4449C53.299 49.2499 53.289 56.0559 53.303 62.8609C62.805 62.8579 72.309 62.8569 81.809 62.8609C80.708 69.3819 76.829 75.3469 71.335 79.0169C67.879 81.3409 63.909 82.8459 59.817 83.5659C55.698 84.2669 51.442 84.3579 47.333 83.5259C43.156 82.6919 39.168 80.9539 35.687 78.4989C30.125 74.5899 25.878 68.8699 23.699 62.4359C21.469 55.8899 21.454 48.6079 23.71 42.0669C25.275 37.4579 27.879 33.2009 31.301 29.7329C35.524 25.4139 41.01 22.3249 46.924 21.0589C51.987 19.9759 57.324 20.1829 62.282 21.6819C66.493 22.9609 70.375 25.2689 73.557 28.3089C76.774 25.1109 79.973 21.8959 83.183 18.6899C84.868 16.9669 86.636 15.3169 88.266 13.5459C83.392 9.03795 77.679 5.40895 71.436 3.11795C60.192 -1.02105 47.516 -1.10505 36.199 2.80895Z" fill="white"/>
<path d="M36.1989 2.80895C47.5149 -1.10505 60.1919 -1.02005 71.4349 3.11895C77.6779 5.40995 83.3909 9.03895 88.2659 13.548C86.6359 15.319 84.8679 16.969 83.1829 18.692C79.9729 21.898 76.7739 25.113 73.5569 28.311C70.3739 25.271 66.4929 22.963 62.2819 21.684C57.3239 20.185 51.9859 19.978 46.9239 21.061C41.0099 22.327 35.5239 25.415 31.3009 29.735C27.8789 33.203 25.2759 37.46 23.7099 42.069C17.9939 37.635 12.2819 33.201 6.56494 28.768C12.5869 16.712 23.4459 7.17795 36.1989 2.80895Z" fill="#FB4231"/>
<path d="M2.0209 41.915C2.9409 37.354 4.4699 32.919 6.5659 28.767C12.2829 33.2 17.9949 37.634 23.7109 42.068C21.4549 48.609 21.4699 55.891 23.6999 62.437C17.9869 66.871 12.2799 71.31 6.5609 75.737C1.3189 65.39 -0.292102 53.275 2.0209 41.915Z" fill="#FFBE0E"/>
<path d="M53.2968 42.4459C69.7058 42.4449 86.1118 42.4409 102.522 42.4479C104.156 51.6449 103.798 61.2359 101.19 70.2179C98.7968 78.4549 94.2838 86.1189 87.9548 91.9349C82.4238 87.6229 76.8668 83.3339 71.3358 79.0189C76.8288 75.3489 80.7088 69.3839 81.8098 62.8629C72.3098 62.8589 62.8058 62.8599 53.3038 62.8629C53.2888 56.0579 53.2988 49.2509 53.2968 42.4459Z" fill="#5581C8"/>
<path d="M6.56079 75.7359C12.2798 71.3089 17.9868 66.8699 23.6998 62.4359C25.8798 68.8709 30.1268 74.5899 35.6878 78.4989C39.1678 80.9539 43.1568 82.6919 47.3338 83.5259C51.4428 84.3579 55.6988 84.2669 59.8178 83.5659C63.9098 82.8459 67.8798 81.3409 71.3358 79.0169C76.8668 83.3319 82.4238 87.6209 87.9548 91.9329C81.9678 97.4609 74.4658 101.249 66.5388 103.075C57.7668 105.07 48.4928 105.124 39.7798 102.786C32.8748 100.949 26.3598 97.6579 20.7718 93.1999C14.8488 88.4949 9.96579 82.4899 6.56079 75.7359Z" fill="#36AC54"/>
</svg>
